<svg xmlns="http://www.w3.org/2000/svg" xmlns:xlink="http://www.w3.org/1999/xlink" width="500" zoomAndPan="magnify" viewBox="0 0 375 374.999991" height="500" preserveAspectRatio="xMidYMid meet" version="1.0"><defs><g/></defs><g fill="#c49b3f" fill-opacity="1"><g transform="translate(165.570545, 211.490811)"><g><path d="M 6.765625 0 L 6.75 -4.578125 L 4.484375 -0.765625 L 4.078125 -0.765625 L 1.796875 -4.546875 L 1.796875 0 L 0.9375 0 L 0.9375 -6.28125 L 1.671875 -6.28125 L 4.296875 -1.859375 L 6.875 -6.28125 L 7.609375 -6.28125 L 7.625 0 Z M 6.765625 0 "/></g></g></g><g fill="#c49b3f" fill-opacity="1"><g transform="translate(177.474597, 211.490811)"><g><path d="M 3.546875 0.078125 C 2.703125 0.078125 2.046875 -0.160156 1.578125 -0.640625 C 1.117188 -1.117188 0.890625 -1.804688 0.890625 -2.703125 L 0.890625 -6.28125 L 1.78125 -6.28125 L 1.78125 -2.75 C 1.78125 -1.394531 2.367188 -0.71875 3.546875 -0.71875 C 4.117188 -0.71875 4.554688 -0.882812 4.859375 -1.21875 C 5.171875 -1.550781 5.328125 -2.0625 5.328125 -2.75 L 5.328125 -6.28125 L 6.203125 -6.28125 L 6.203125 -2.703125 C 6.203125 -1.804688 5.96875 -1.117188 5.5 -0.640625 C 5.03125 -0.160156 4.378906 0.078125 3.546875 0.078125 Z M 3.546875 0.078125 "/></g></g></g><g fill="#c49b3f" fill-opacity="1"><g transform="translate(187.908564, 211.490811)"><g><path d="M 2.765625 0.078125 C 2.296875 0.078125 1.84375 0.00390625 1.40625 -0.140625 C 0.96875 -0.296875 0.625 -0.488281 0.375 -0.71875 L 0.703125 -1.421875 C 0.941406 -1.203125 1.242188 -1.023438 1.609375 -0.890625 C 1.984375 -0.753906 2.367188 -0.6875 2.765625 -0.6875 C 3.285156 -0.6875 3.675781 -0.773438 3.9375 -0.953125 C 4.195312 -1.128906 4.328125 -1.363281 4.328125 -1.65625 C 4.328125 -1.875 4.253906 -2.050781 4.109375 -2.1875 C 3.972656 -2.320312 3.800781 -2.421875 3.59375 -2.484375 C 3.382812 -2.554688 3.09375 -2.640625 2.71875 -2.734375 C 2.25 -2.847656 1.867188 -2.960938 1.578125 -3.078125 C 1.285156 -3.191406 1.035156 -3.363281 0.828125 -3.59375 C 0.617188 -3.832031 0.515625 -4.15625 0.515625 -4.5625 C 0.515625 -4.894531 0.601562 -5.191406 0.78125 -5.453125 C 0.957031 -5.722656 1.222656 -5.9375 1.578125 -6.09375 C 1.941406 -6.257812 2.390625 -6.34375 2.921875 -6.34375 C 3.296875 -6.34375 3.660156 -6.296875 4.015625 -6.203125 C 4.378906 -6.109375 4.6875 -5.972656 4.9375 -5.796875 L 4.640625 -5.078125 C 4.378906 -5.242188 4.097656 -5.367188 3.796875 -5.453125 C 3.503906 -5.546875 3.210938 -5.59375 2.921875 -5.59375 C 2.410156 -5.59375 2.03125 -5.5 1.78125 -5.3125 C 1.53125 -5.125 1.40625 -4.882812 1.40625 -4.59375 C 1.40625 -4.375 1.472656 -4.195312 1.609375 -4.0625 C 1.753906 -3.925781 1.929688 -3.820312 2.140625 -3.75 C 2.359375 -3.675781 2.648438 -3.597656 3.015625 -3.515625 C 3.484375 -3.398438 3.859375 -3.285156 4.140625 -3.171875 C 4.429688 -3.054688 4.679688 -2.882812 4.890625 -2.65625 C 5.097656 -2.425781 5.203125 -2.113281 5.203125 -1.71875 C 5.203125 -1.382812 5.109375 -1.082031 4.921875 -0.8125 C 4.742188 -0.539062 4.472656 -0.320312 4.109375 -0.15625 C 3.742188 0 3.296875 0.078125 2.765625 0.078125 Z M 2.765625 0.078125 "/></g></g></g><g fill="#c49b3f" fill-opacity="1"><g transform="translate(196.818673, 211.490811)"><g><path d="M 0.9375 -6.28125 L 1.84375 -6.28125 L 1.84375 0 L 0.9375 0 Z M 0.9375 -6.28125 "/></g></g></g><g fill="#c49b3f" fill-opacity="1"><g transform="translate(202.941003, 211.490811)"><g><path d="M 3.75 0.078125 C 3.125 0.078125 2.554688 -0.0625 2.046875 -0.34375 C 1.546875 -0.625 1.148438 -1.003906 0.859375 -1.484375 C 0.578125 -1.972656 0.4375 -2.523438 0.4375 -3.140625 C 0.4375 -3.742188 0.578125 -4.289062 0.859375 -4.78125 C 1.148438 -5.269531 1.546875 -5.648438 2.046875 -5.921875 C 2.554688 -6.203125 3.128906 -6.34375 3.765625 -6.34375 C 4.253906 -6.34375 4.703125 -6.257812 5.109375 -6.09375 C 5.515625 -5.9375 5.859375 -5.695312 6.140625 -5.375 L 5.5625 -4.8125 C 5.09375 -5.300781 4.503906 -5.546875 3.796875 -5.546875 C 3.328125 -5.546875 2.90625 -5.441406 2.53125 -5.234375 C 2.15625 -5.023438 1.859375 -4.738281 1.640625 -4.375 C 1.429688 -4.007812 1.328125 -3.597656 1.328125 -3.140625 C 1.328125 -2.679688 1.429688 -2.269531 1.640625 -1.90625 C 1.859375 -1.539062 2.15625 -1.25 2.53125 -1.03125 C 2.90625 -0.820312 3.328125 -0.71875 3.796875 -0.71875 C 4.492188 -0.71875 5.082031 -0.972656 5.5625 -1.484375 L 6.140625 -0.921875 C 5.859375 -0.597656 5.507812 -0.347656 5.09375 -0.171875 C 4.6875 -0.00390625 4.238281 0.078125 3.75 0.078125 Z M 3.75 0.078125 "/></g></g></g><g fill="#c49b3f" fill-opacity="1"><g transform="translate(45.616115, 191.266761)"><g><path d="M 15.800781 -0.84375 C 16.269531 -1.015625 16.792969 -1.089844 17.289062 -0.992188 C 24.605469 0.273438 33.234375 0.71875 40.230469 -4.835938 C 40.527344 -5.058594 40.550781 -5.457031 40.328125 -5.753906 C 40.105469 -6.027344 39.707031 -6.078125 39.4375 -5.851562 C 33.582031 -1.214844 26.664062 -0.992188 20.140625 -1.859375 C 19.941406 -1.886719 19.769531 -2.058594 19.71875 -2.257812 C 19.667969 -2.480469 19.769531 -2.703125 19.964844 -2.800781 C 23.660156 -5.011719 27.035156 -8.40625 30.160156 -12.027344 C 30.558594 -12.5 31.152344 -12.796875 31.773438 -12.898438 L 32.195312 -12.945312 C 42.785156 -14.386719 49.878906 -24.109375 50.050781 -27.828125 C 50.125 -29.21875 49.28125 -29.566406 48.910156 -29.664062 C 43.851562 -30.855469 39.015625 -24.875 33.410156 -17.980469 C 32.566406 -16.914062 31.671875 -15.824219 30.78125 -14.757812 C 30.382812 -14.285156 29.8125 -13.988281 29.21875 -13.964844 C 23.066406 -13.589844 19.097656 -15.128906 18.128906 -18.304688 C 17.136719 -21.554688 19.691406 -26.066406 23.539062 -27.925781 C 23.859375 -28.078125 24.007812 -28.472656 23.859375 -28.796875 C 23.6875 -29.117188 23.3125 -29.242188 22.992188 -29.09375 C 18.503906 -26.933594 15.726562 -21.828125 16.890625 -17.933594 C 17.535156 -15.75 19.84375 -12.476562 27.828125 -12.601562 C 28.027344 -12.601562 28.199219 -12.476562 28.273438 -12.300781 C 28.375 -12.128906 28.324219 -11.929688 28.199219 -11.78125 C 24.902344 -8.0625 21.304688 -4.710938 17.4375 -2.953125 L 17.089844 -2.800781 C 16.617188 -2.578125 16.121094 -2.53125 15.625 -2.628906 C 14.609375 -2.828125 13.617188 -3.027344 12.675781 -3.222656 C 7.191406 -4.367188 2.851562 -5.257812 0.820312 -3.101562 C 0.296875 -2.605469 0.246094 -1.8125 0.667969 -1.238281 C 1.238281 -0.296875 3.199219 1.117188 6.945312 1.117188 C 9.996094 1.015625 12.996094 0.347656 15.800781 -0.84375 Z M 4.785156 -3.125 C 7.367188 -3 9.921875 -2.605469 12.402344 -1.960938 C 13.617188 -1.660156 13.320312 -1.339844 13.097656 -1.265625 C 6.175781 0.917969 3.050781 -0.941406 2.355469 -1.339844 C 1.8125 -1.660156 1.734375 -1.960938 1.734375 -2.183594 C 1.734375 -2.828125 3.421875 -3.125 4.785156 -3.125 Z M 47.621094 -28.5 C 47.941406 -28.5 48.289062 -28.472656 48.613281 -28.398438 C 48.761719 -28.347656 48.761719 -28.101562 48.761719 -27.878906 C 48.636719 -25.25 42.882812 -16.492188 33.457031 -14.484375 C 33.234375 -14.433594 33.011719 -14.535156 32.886719 -14.734375 C 32.765625 -14.90625 32.789062 -15.15625 32.9375 -15.328125 C 33.433594 -15.949219 33.929688 -16.566406 34.425781 -17.164062 C 39.335938 -23.214844 43.628906 -28.5 47.621094 -28.5 Z M 47.621094 -28.5 "/></g></g></g><g fill="#c49b3f" fill-opacity="1"><g transform="translate(88.241886, 191.266761)"><g><path d="M 20.808594 -6.375 C 20.683594 -6.5 20.535156 -6.597656 20.363281 -6.597656 C 20.1875 -6.621094 20.015625 -6.574219 19.890625 -6.472656 C 19.792969 -6.398438 10.242188 1.191406 2.28125 -2.082031 C 0.667969 -2.753906 0.59375 -3.621094 0.644531 -4.09375 C 0.644531 -4.167969 0.667969 -4.242188 0.742188 -4.289062 C 0.792969 -4.339844 0.894531 -4.339844 0.96875 -4.316406 C 2.578125 -4.214844 4.191406 -4.636719 5.582031 -5.507812 C 6.769531 -6.273438 6.96875 -7.117188 6.894531 -7.664062 C 6.84375 -8.558594 6.125 -9.277344 5.207031 -9.300781 C 3.25 -9.398438 -0.0234375 -7.070312 -0.570312 -4.589844 C -0.792969 -3.671875 -0.769531 -1.933594 1.785156 -0.894531 C 3.347656 -0.246094 4.984375 0.0507812 6.648438 0.0507812 C 13.765625 0.0507812 20.363281 -5.183594 20.710938 -5.457031 C 20.835938 -5.554688 20.933594 -5.730469 20.933594 -5.878906 C 20.957031 -6.050781 20.910156 -6.226562 20.808594 -6.375 Z M 1.539062 -5.828125 C 2.503906 -7.167969 4.117188 -8.0625 5.132812 -7.988281 C 5.40625 -7.988281 5.554688 -7.886719 5.605469 -7.515625 C 5.628906 -7.265625 5.355469 -6.917969 4.859375 -6.597656 C 3.84375 -5.929688 0.792969 -4.835938 1.539062 -5.828125 Z M 1.539062 -5.828125 "/></g></g></g><g fill="#c49b3f" fill-opacity="1"><g transform="translate(108.104159, 191.266761)"><g><path d="M 21.675781 -6.175781 C 21.527344 -6.273438 21.378906 -6.347656 21.207031 -6.347656 C 21.03125 -6.324219 20.859375 -6.25 20.757812 -6.125 C 20.683594 -6.078125 15.230469 -0.246094 10.492188 -2.15625 C 9.472656 -2.703125 8.65625 -3.523438 8.085938 -4.539062 C 7.886719 -4.859375 7.640625 -5.183594 7.339844 -5.480469 C 7.019531 -5.878906 6.523438 -6.101562 6.003906 -6.125 C 4.738281 -6.226562 3.199219 -5.382812 1.363281 -3.644531 C 1.316406 -3.597656 1.238281 -3.570312 1.164062 -3.621094 C 1.089844 -3.644531 1.042969 -3.746094 1.066406 -3.820312 L 1.613281 -6.25 C 1.710938 -6.597656 1.488281 -6.96875 1.140625 -7.042969 C 0.792969 -7.117188 0.445312 -6.894531 0.347656 -6.546875 L -0.894531 -1.117188 C -0.96875 -0.820312 -0.820312 -0.519531 -0.546875 -0.398438 C -0.273438 -0.246094 0.0507812 -0.324219 0.246094 -0.546875 C 3.570312 -4.441406 5.257812 -4.8125 5.851562 -4.835938 C 6.449219 -4.859375 6.820312 -4.09375 7.019531 -3.792969 C 7.714844 -2.578125 8.753906 -1.585938 9.996094 -0.96875 C 15.550781 1.289062 21.453125 -4.984375 21.703125 -5.257812 C 21.949219 -5.507812 21.925781 -5.929688 21.675781 -6.175781 Z M 21.675781 -6.175781 "/></g></g></g><g fill="#c49b3f" fill-opacity="1"><g transform="translate(128.759931, 191.266761)"><g><path d="M 16.070312 -6.695312 C 15.800781 -6.945312 15.402344 -6.945312 15.15625 -6.671875 C 15.054688 -6.597656 7.019531 1.585938 1.6875 -2.304688 C 0.0507812 -3.496094 1.636719 -6.597656 1.660156 -6.621094 C 1.8125 -6.945312 1.6875 -7.316406 1.363281 -7.492188 C 1.042969 -7.640625 0.667969 -7.539062 0.496094 -7.21875 C 0.398438 -7.070312 -1.613281 -3.125 0.917969 -1.265625 C 2.082031 -0.398438 3.523438 0.0742188 4.984375 0.0507812 C 10.34375 0.0507812 15.773438 -5.480469 16.070312 -5.777344 C 16.195312 -5.902344 16.269531 -6.050781 16.269531 -6.226562 C 16.246094 -6.398438 16.195312 -6.574219 16.070312 -6.695312 Z M 0.222656 -8.65625 C 0.324219 -8.65625 0.421875 -8.679688 0.519531 -8.730469 C 1.117188 -9.027344 1.636719 -9.425781 2.109375 -9.894531 C 2.355469 -10.167969 2.332031 -10.566406 2.082031 -10.8125 C 1.8125 -11.0625 1.414062 -11.0625 1.164062 -10.789062 C 0.792969 -10.417969 0.371094 -10.121094 -0.0976562 -9.871094 C -0.347656 -9.746094 -0.496094 -9.425781 -0.421875 -9.152344 C -0.347656 -8.855469 -0.0742188 -8.65625 0.222656 -8.65625 Z M 0.222656 -8.65625 "/></g></g></g><g fill="#c49b3f" fill-opacity="1"><g transform="translate(143.985196, 191.266761)"><g/></g></g><g fill="#c49b3f" fill-opacity="1"><g transform="translate(153.209625, 191.266761)"><g><path d="M 29.464844 -19.023438 C 31.796875 -22.96875 30.929688 -25.125 29.789062 -26.242188 C 26.09375 -29.863281 13.890625 -27.480469 6.472656 -22.941406 C 1.660156 -20.015625 -0.445312 -16.667969 0.519531 -13.542969 C 0.621094 -13.195312 0.992188 -12.996094 1.339844 -13.097656 C 1.6875 -13.21875 1.859375 -13.566406 1.761719 -13.914062 C 0.71875 -17.3125 4.6875 -20.339844 7.144531 -21.851562 C 14.734375 -26.464844 25.894531 -28.25 28.871094 -25.296875 C 30.0625 -24.15625 29.863281 -22.273438 28.347656 -19.667969 C 25.222656 -14.359375 17.808594 -11.136719 13.246094 -10.441406 C 13.195312 -10.441406 13.097656 -10.542969 13.121094 -10.640625 C 13.144531 -10.738281 13.144531 -10.738281 13.171875 -10.8125 C 13.964844 -14.929688 15.003906 -20.066406 16.519531 -20.4375 C 16.867188 -20.511719 17.0625 -20.859375 16.988281 -21.207031 C 16.890625 -21.554688 16.542969 -21.777344 16.195312 -21.703125 C 13.890625 -21.132812 12.972656 -16.542969 11.90625 -11.1875 C 11.878906 -11.0625 11.757812 -10.988281 11.65625 -11.136719 C 10.8125 -12.425781 10.195312 -13.097656 9.472656 -12.996094 C 8.707031 -12.871094 8.484375 -12.003906 8.40625 -11.707031 C 8.085938 -10.738281 8.605469 -9.671875 9.597656 -9.324219 C 10.144531 -9.128906 10.714844 -9.027344 11.308594 -9.003906 C 11.359375 -9.003906 11.457031 -9.003906 11.433594 -8.855469 C 10.691406 -5.308594 9.773438 -1.761719 8.53125 -1.4375 C 8.308594 -1.390625 8.109375 -1.214844 8.0625 -0.992188 C 7.988281 -0.742188 8.0625 -0.519531 8.210938 -0.347656 C 8.382812 -0.171875 8.632812 -0.125 8.855469 -0.171875 C 10.617188 -0.644531 11.558594 -3.421875 12.375 -7.070312 C 12.402344 -7.144531 12.425781 -7.167969 12.5 -7.191406 C 12.550781 -7.191406 12.601562 -7.167969 12.625 -7.117188 C 14.832031 -3.671875 17.859375 0.296875 21.949219 0.296875 C 22.125 0.296875 22.296875 0.296875 22.496094 0.273438 C 26.710938 -0.0976562 28.050781 -4.5625 28.125 -4.738281 C 28.226562 -5.085938 28.027344 -5.457031 27.679688 -5.554688 C 27.332031 -5.65625 26.960938 -5.457031 26.859375 -5.109375 C 26.859375 -5.085938 25.71875 -1.316406 22.371094 -1.015625 C 22.222656 -1.015625 22.097656 -1.015625 21.949219 -1.015625 C 18.28125 -1.015625 15.378906 -5.160156 13.292969 -8.507812 C 13.21875 -8.632812 13.21875 -8.78125 13.269531 -8.929688 C 13.34375 -9.054688 13.46875 -9.152344 13.617188 -9.175781 C 18.675781 -9.945312 26.191406 -13.417969 29.464844 -19.023438 Z M 10.09375 -10.542969 C 9.597656 -10.738281 9.523438 -11.039062 9.648438 -11.382812 C 9.722656 -11.558594 9.773438 -11.507812 9.820312 -11.484375 C 10.046875 -11.1875 10.269531 -10.886719 10.464844 -10.589844 C 10.566406 -10.441406 10.441406 -10.417969 10.390625 -10.441406 C 10.292969 -10.464844 10.195312 -10.492188 10.09375 -10.542969 Z M 10.09375 -10.542969 "/></g></g></g><g fill="#c49b3f" fill-opacity="1"><g transform="translate(182.693071, 191.266761)"><g><path d="M 18.082031 -7.042969 C 17.957031 -7.167969 17.808594 -7.21875 17.632812 -7.21875 C 17.460938 -7.21875 17.289062 -7.167969 17.164062 -7.042969 C 14.1875 -4.066406 9.96875 -2.703125 5.828125 -3.398438 C 5.507812 -3.472656 5.28125 -3.769531 5.332031 -4.09375 C 5.53125 -5.28125 5.433594 -6.5 4.738281 -6.894531 C 4.289062 -7.144531 3.621094 -7.167969 2.828125 -5.828125 C 2.53125 -5.382812 2.429688 -4.835938 2.53125 -4.316406 C 2.652344 -3.792969 2.976562 -3.324219 3.421875 -3.050781 C 3.695312 -2.828125 3.375 -2.457031 3.199219 -2.28125 C 2.726562 -1.710938 1.910156 -1.613281 1.339844 -2.058594 C 0.621094 -2.382812 0.296875 -3.175781 0.570312 -3.894531 C 0.894531 -5.207031 2.183594 -6.347656 2.652344 -6.347656 C 3 -6.347656 3.296875 -6.648438 3.296875 -6.996094 C 3.324219 -7.339844 3.027344 -7.640625 2.679688 -7.664062 L 2.652344 -7.664062 C 1.414062 -7.664062 -0.246094 -5.976562 -0.695312 -4.214844 C -1.117188 -2.925781 -0.519531 -1.511719 0.71875 -0.917969 C 1.191406 -0.644531 1.710938 -0.519531 2.257812 -0.496094 C 3.324219 -0.546875 4.265625 -1.191406 4.710938 -2.183594 C 4.761719 -2.257812 4.886719 -2.304688 4.984375 -2.28125 C 8.136719 -1.339844 13.890625 -1.933594 18.082031 -6.101562 C 18.203125 -6.226562 18.28125 -6.398438 18.28125 -6.574219 C 18.28125 -6.746094 18.203125 -6.917969 18.082031 -7.042969 Z M 4.042969 -4.214844 C 3.769531 -4.464844 3.71875 -4.859375 3.945312 -5.160156 C 4.019531 -5.28125 4.066406 -5.355469 4.117188 -5.433594 C 4.140625 -5.035156 4.117188 -4.613281 4.042969 -4.214844 Z M 4.042969 -4.214844 "/></g></g></g><g fill="#c49b3f" fill-opacity="1"><g transform="translate(199.827691, 191.266761)"><g><path d="M 17.015625 -6.871094 C 16.890625 -6.996094 16.742188 -7.042969 16.566406 -7.042969 C 16.394531 -7.042969 16.222656 -6.996094 16.097656 -6.871094 C 13.714844 -4.613281 10.789062 -3.027344 7.589844 -2.257812 C 7.464844 -2.207031 7.316406 -2.257812 7.242188 -2.355469 C 7.167969 -2.480469 7.144531 -2.605469 7.21875 -2.726562 C 7.664062 -3.597656 7.566406 -4.636719 6.996094 -5.433594 C 6.648438 -5.902344 6.199219 -6.300781 5.679688 -6.597656 C 4.984375 -7.070312 4.214844 -7.613281 4.191406 -8.183594 C 4.214844 -8.507812 4.339844 -8.804688 4.5625 -9.054688 L 5.902344 -10.316406 C 6.152344 -10.566406 6.175781 -10.960938 5.953125 -11.210938 C 5.730469 -11.484375 5.355469 -11.53125 5.058594 -11.308594 C 4.539062 -10.914062 4.042969 -10.464844 3.621094 -9.945312 L -0.199219 -6.375 C -0.371094 -6.226562 -0.445312 -5.976562 -0.398438 -5.753906 C -0.347656 -5.507812 -0.171875 -5.332031 0.0507812 -5.257812 C 0.273438 -5.207031 0.519531 -5.257812 0.695312 -5.433594 L 2.578125 -7.191406 C 2.679688 -7.292969 2.800781 -7.316406 2.925781 -7.316406 C 3.050781 -7.292969 3.148438 -7.21875 3.199219 -7.117188 C 3.671875 -6.472656 4.265625 -5.929688 4.9375 -5.53125 C 5.308594 -5.308594 5.628906 -5.058594 5.902344 -4.738281 C 6.152344 -4.464844 6.273438 -4.09375 6.199219 -3.71875 C 6.125 -3.347656 5.902344 -3.027344 5.582031 -2.851562 C 3.992188 -1.960938 1.984375 -2.382812 0.894531 -3.84375 C 0.71875 -4.117188 0.324219 -4.214844 0.0234375 -4.019531 C -0.273438 -3.84375 -0.371094 -3.472656 -0.199219 -3.148438 C 0.621094 -1.734375 2.082031 -0.820312 3.71875 -0.695312 C 4.140625 -0.621094 4.539062 -0.59375 4.960938 -0.59375 C 9.152344 -0.59375 14.3125 -3.222656 17.015625 -5.953125 C 17.261719 -6.199219 17.261719 -6.621094 17.015625 -6.871094 Z M 17.015625 -6.871094 "/></g></g></g><g fill="#c49b3f" fill-opacity="1"><g transform="translate(215.846454, 191.266761)"><g><path d="M 20.808594 -6.375 C 20.683594 -6.5 20.535156 -6.597656 20.363281 -6.597656 C 20.1875 -6.621094 20.015625 -6.574219 19.890625 -6.472656 C 19.792969 -6.398438 10.242188 1.191406 2.28125 -2.082031 C 0.667969 -2.753906 0.59375 -3.621094 0.644531 -4.09375 C 0.644531 -4.167969 0.667969 -4.242188 0.742188 -4.289062 C 0.792969 -4.339844 0.894531 -4.339844 0.96875 -4.316406 C 2.578125 -4.214844 4.191406 -4.636719 5.582031 -5.507812 C 6.769531 -6.273438 6.96875 -7.117188 6.894531 -7.664062 C 6.84375 -8.558594 6.125 -9.277344 5.207031 -9.300781 C 3.25 -9.398438 -0.0234375 -7.070312 -0.570312 -4.589844 C -0.792969 -3.671875 -0.769531 -1.933594 1.785156 -0.894531 C 3.347656 -0.246094 4.984375 0.0507812 6.648438 0.0507812 C 13.765625 0.0507812 20.363281 -5.183594 20.710938 -5.457031 C 20.835938 -5.554688 20.933594 -5.730469 20.933594 -5.878906 C 20.957031 -6.050781 20.910156 -6.226562 20.808594 -6.375 Z M 1.539062 -5.828125 C 2.503906 -7.167969 4.117188 -8.0625 5.132812 -7.988281 C 5.40625 -7.988281 5.554688 -7.886719 5.605469 -7.515625 C 5.628906 -7.265625 5.355469 -6.917969 4.859375 -6.597656 C 3.84375 -5.929688 0.792969 -4.835938 1.539062 -5.828125 Z M 1.539062 -5.828125 "/></g></g></g><g fill="#c49b3f" fill-opacity="1"><g transform="translate(235.708727, 191.266761)"><g/></g></g><g fill="#c49b3f" fill-opacity="1"><g transform="translate(244.933157, 191.266761)"><g><path d="M 21.800781 -9.324219 C 22.59375 -10.960938 23.238281 -12.625 23.761719 -14.359375 C 23.886719 -14.832031 24.304688 -15.179688 24.800781 -15.253906 C 25.671875 -15.328125 26.5625 -15.402344 27.480469 -15.453125 C 27.65625 -15.453125 27.804688 -15.527344 27.925781 -15.648438 C 28.027344 -15.773438 28.101562 -15.949219 28.078125 -16.121094 C 28.050781 -16.46875 27.753906 -16.742188 27.40625 -16.742188 C 26.738281 -16.71875 26.09375 -16.667969 25.449219 -16.617188 C 25.175781 -16.59375 24.925781 -16.691406 24.726562 -16.867188 C 24.554688 -17.0625 24.480469 -17.335938 24.503906 -17.609375 C 25.199219 -21.703125 24.703125 -25.421875 22.371094 -27.257812 C 20.882812 -28.421875 18.972656 -27.207031 17.289062 -26.117188 C 16.195312 -25.449219 14.957031 -24.652344 14.335938 -24.851562 C 14.238281 -24.875 13.964844 -24.976562 13.714844 -25.597656 C 13.589844 -25.917969 13.21875 -26.09375 12.871094 -25.945312 C 12.550781 -25.820312 12.375 -25.449219 12.523438 -25.101562 C 12.722656 -24.429688 13.246094 -23.886719 13.914062 -23.613281 C 15.15625 -23.214844 16.519531 -24.109375 17.980469 -25.027344 C 19.371094 -25.917969 20.808594 -26.835938 21.578125 -26.242188 C 23.4375 -24.777344 23.933594 -21.332031 23.140625 -17.1875 C 23.042969 -16.691406 22.621094 -16.296875 22.097656 -16.222656 C 7.714844 -14.164062 1.734375 -7.167969 1.289062 -2.503906 C 0.894531 -0.148438 2.429688 2.109375 4.761719 2.628906 C 5.53125 2.828125 6.347656 2.925781 7.144531 2.925781 C 13.46875 2.925781 18.875 -3.398438 21.800781 -9.324219 Z M 20.636719 -9.894531 C 17.558594 -3.671875 11.65625 3.027344 5.085938 1.363281 C 3.375 1.015625 2.257812 -0.644531 2.578125 -2.382812 C 2.976562 -6.347656 8.457031 -12.625 21.28125 -14.78125 C 21.554688 -14.832031 21.851562 -14.734375 22.050781 -14.507812 C 22.222656 -14.285156 22.296875 -13.988281 22.199219 -13.714844 C 21.75 -12.402344 21.230469 -11.136719 20.636719 -9.894531 Z M 20.636719 -9.894531 "/></g></g></g><g fill="#c49b3f" fill-opacity="1"><g transform="translate(268.812511, 191.266761)"><g><path d="M 20.734375 -6.003906 C 20.488281 -6.273438 20.066406 -6.300781 19.792969 -6.050781 C 19.71875 -5.976562 12.351562 0.644531 7.789062 -2.355469 C 5.976562 -3.546875 5.53125 -6.425781 5.53125 -6.449219 C 5.507812 -6.746094 5.28125 -6.96875 4.984375 -7.019531 C 4.710938 -7.042969 4.414062 -6.894531 4.289062 -6.648438 C 3.125 -4.066406 1.066406 -0.792969 0.496094 -1.164062 C 0.445312 -1.164062 0.347656 -1.265625 0.273438 -1.4375 C -0.0234375 -2.257812 0.0742188 -3.148438 0.496094 -3.917969 C 1.4375 -5.851562 3.175781 -7.242188 5.257812 -7.761719 C 5.480469 -7.8125 5.65625 -7.988281 5.730469 -8.210938 C 5.804688 -8.433594 5.730469 -8.679688 5.582031 -8.855469 C 5.40625 -9.003906 5.183594 -9.078125 4.960938 -9.027344 C 2.480469 -8.433594 0.421875 -6.746094 -0.695312 -4.464844 C -1.289062 -3.347656 -1.363281 -2.007812 -0.894531 -0.84375 C -0.667969 -0.273438 -0.125 0.125 0.496094 0.125 L 0.519531 0.125 C 1.734375 0.0976562 3.25 -1.414062 4.289062 -3.050781 C 4.414062 -3.25 4.636719 -3.347656 4.859375 -3.324219 C 5.085938 -3.324219 5.28125 -3.199219 5.382812 -3 C 5.804688 -2.304688 6.375 -1.710938 7.070312 -1.289062 C 12.476562 2.304688 20.339844 -4.785156 20.683594 -5.085938 C 20.808594 -5.207031 20.882812 -5.382812 20.882812 -5.53125 C 20.910156 -5.703125 20.835938 -5.878906 20.734375 -6.003906 Z M 20.734375 -6.003906 "/></g></g></g><g fill="#c49b3f" fill-opacity="1"><g transform="translate(288.848369, 191.266761)"><g><path d="M 21.675781 -6.175781 C 21.527344 -6.273438 21.378906 -6.347656 21.207031 -6.347656 C 21.03125 -6.324219 20.859375 -6.25 20.757812 -6.125 C 20.683594 -6.078125 15.230469 -0.246094 10.492188 -2.15625 C 9.472656 -2.703125 8.65625 -3.523438 8.085938 -4.539062 C 7.886719 -4.859375 7.640625 -5.183594 7.339844 -5.480469 C 7.019531 -5.878906 6.523438 -6.101562 6.003906 -6.125 C 4.738281 -6.226562 3.199219 -5.382812 1.363281 -3.644531 C 1.316406 -3.597656 1.238281 -3.570312 1.164062 -3.621094 C 1.089844 -3.644531 1.042969 -3.746094 1.066406 -3.820312 L 1.613281 -6.25 C 1.710938 -6.597656 1.488281 -6.96875 1.140625 -7.042969 C 0.792969 -7.117188 0.445312 -6.894531 0.347656 -6.546875 L -0.894531 -1.117188 C -0.96875 -0.820312 -0.820312 -0.519531 -0.546875 -0.398438 C -0.273438 -0.246094 0.0507812 -0.324219 0.246094 -0.546875 C 3.570312 -4.441406 5.257812 -4.8125 5.851562 -4.835938 C 6.449219 -4.859375 6.820312 -4.09375 7.019531 -3.792969 C 7.714844 -2.578125 8.753906 -1.585938 9.996094 -0.96875 C 15.550781 1.289062 21.453125 -4.984375 21.703125 -5.257812 C 21.949219 -5.507812 21.925781 -5.929688 21.675781 -6.175781 Z M 21.675781 -6.175781 "/></g></g></g><g fill="#c49b3f" fill-opacity="1"><g transform="translate(309.504129, 191.266761)"><g><path d="M 20.808594 -6.375 C 20.683594 -6.5 20.535156 -6.597656 20.363281 -6.597656 C 20.1875 -6.621094 20.015625 -6.574219 19.890625 -6.472656 C 19.792969 -6.398438 10.242188 1.191406 2.28125 -2.082031 C 0.667969 -2.753906 0.59375 -3.621094 0.644531 -4.09375 C 0.644531 -4.167969 0.667969 -4.242188 0.742188 -4.289062 C 0.792969 -4.339844 0.894531 -4.339844 0.96875 -4.316406 C 2.578125 -4.214844 4.191406 -4.636719 5.582031 -5.507812 C 6.769531 -6.273438 6.96875 -7.117188 6.894531 -7.664062 C 6.84375 -8.558594 6.125 -9.277344 5.207031 -9.300781 C 3.25 -9.398438 -0.0234375 -7.070312 -0.570312 -4.589844 C -0.792969 -3.671875 -0.769531 -1.933594 1.785156 -0.894531 C 3.347656 -0.246094 4.984375 0.0507812 6.648438 0.0507812 C 13.765625 0.0507812 20.363281 -5.183594 20.710938 -5.457031 C 20.835938 -5.554688 20.933594 -5.730469 20.933594 -5.878906 C 20.957031 -6.050781 20.910156 -6.226562 20.808594 -6.375 Z M 1.539062 -5.828125 C 2.503906 -7.167969 4.117188 -8.0625 5.132812 -7.988281 C 5.40625 -7.988281 5.554688 -7.886719 5.605469 -7.515625 C 5.628906 -7.265625 5.355469 -6.917969 4.859375 -6.597656 C 3.84375 -5.929688 0.792969 -4.835938 1.539062 -5.828125 Z M 1.539062 -5.828125 "/></g></g></g></svg>